#!OML:ASF F:\VICON\USERDATA\INSTALL\rory3\rory3.ASF
:FULLY-SPECIFIED
:DEGREES
377
root -0.230654 16.8278 -7.78922 20.0322 -21.737 -2.38959
lowerback 0.91754 4.76657 2.83981
upperback -1.50902 6.40853 -0.512822
thorax -1.6938 3.16132 -2.23681
lowerneck -25.0159 6.9632 0.788253
upperneck 17.8341 10.948 -6.81976
head 10.2543 4.2473 -0.792374
rclavicle -5.65542e-014 2.10712e-014
rhumerus -61.8313 -52.1845 65.7865
rradius 16.8223
rwrist 126.757
rhand 0.217684 0.15006
rfingers 7.12502
rthumb 25.7989 -28.1206
lclavicle -5.65542e-014 2.10712e-014
lhumerus -36.8752 -10.9992 4.52231
lradius 12.3717
lwrist -57.6434
lhand -8.55445 28.8026
lfingers 7.12502
lthumb 17.3753 58.0459
rfemur 159.953 -190.254 -155.879
rtibia 37.1816
rfoot -24.4189 -28.7171
rtoes -8.15798
lfemur -67.2375 -6.57949 -0.713139
ltibia 35.9105
lfoot -35.0878 31.8575
ltoes 47.4047
378
root -0.238173 16.6375 -7.61251 19.69 -21.98 -3.13184
lowerback 1.08357 5.2185 3.0621
upperback -1.11724 7.01125 -0.696665
thorax -1.29978 3.4707 -2.54121
lowerneck -25.1235 6.74291 0.846514
upperneck 17.4298 10.5032 -6.49792
head 10.0884 4.10185 -0.765557
rclavicle -2.60408e-014 9.93923e-015
rhumerus -63.2625 -52.7555 67.123
rradius 17.2293
rwrist 130.073
rhand -0.463526 0.672304
rfingers 7.12502
rthumb 25.1463 -27.6915
lclavicle -2.60408e-014 9.93923e-015
lhumerus -38.722 -8.01297 1.84529
lradius 11.929
lwrist -59.9791
lhand -6.45598 29.8595
lfingers 7.12502
lthumb 19.394 58.9123
rfemur 161.89 -190.54 -155.095
rtibia 36.641
rfoot -26.9358 -29.1833
rtoes -8.64629
lfemur -67.2256 -5.25527 0.12427
ltibia 35.9484
lfoot -36.8758 31.6183
ltoes 47.0809
379
root -0.244252 16.4464 -7.42897 19.3788 -22.1308 -4.13672
lowerback 1.43137 5.6264 3.50495
upperback -0.884456 7.57028 -0.778525
thorax -1.15079 3.75138 -2.88801
lowerneck -25.7284 6.52369 0.776704
upperneck 17.6929 10.1093 -5.91679
head 10.2291 3.96259 -0.599511
rclavicle -4.06515e-014 9.34288e-015
rhumerus -64.3659 -53.3089 67.9983
rradius 17.502
rwrist 132.483
rhand -0.363614 1.05908
rfingers 7.12502
rthumb 25.242 -27.2913
lclavicle -4.06515e-014 9.34288e-015
lhumerus -40.8134 -5.7647 -0.645768
lradius 11.4373
lwrist -60.9757
lhand -4.26453 29.9175
lfingers 7.12502
lthumb 21.4999 58.7443
rfemur 163.997 -190.589 -154.05
rtibia 35.9342
rfoot -28.7947 -29.4751
rtoes -9.28413
lfemur -67.3008 -3.18331 0.313152
ltibia 36.5028
lfoot -37.2563 31.155
ltoes 46.8939
380
root -0.248733 16.2553 -7.22959 19.3346 -22.2551 -6.06519
lowerback 1.78784 6.11635 4.76614
upperback -0.712252 8.26467 -0.601509
thorax -0.971832 4.09486 -3.41617
lowerneck -26.3145 6.2419 0.857734
upperneck 18.1099 9.63961 -5.56257
head 10.4464 3.76784 -0.547707
rclavicle -6.0679e-014 -6.65929e-015
rhumerus -64.9404 -53.5032 68.1263
rradius 17.5622
rwrist 133.503
rhand 0.047365 1.22845
rfingers 7.12502
rthumb 25.6357 -27.0658
lclavicle -6.0679e-014 -6.65929e-015
lhumerus -43.1761 -3.52812 -3.28362
lradius 11.1431
lwrist -61.4586
lhand -2.10158 29.1885
lfingers 7.12502
lthumb 23.576 57.7634
rfemur 166.372 -190.806 -152.125
rtibia 35.0653
rfoot -30.4155 -29.6377
rtoes -9.94729
lfemur -67.5048 -0.602774 1.15083
ltibia 37.6494
lfoot -36.8247 32.2397
ltoes 47.9448
381
root -0.24586 16.0614 -7.01646 19.6638 -22.3221 -8.74437
lowerback 2.15543 6.65969 6.70575
upperback -0.783575 9.06789 -0.209217
thorax -0.946226 4.47937 -4.09909
lowerneck -26.2914 5.93065 0.884407
upperneck 18.4594 9.13381 -5.19229
head 10.5311 3.57523 -0.503489
rclavicle -1.26601e-013 -1.05356e-014
rhumerus -65.4832 -53.6644 68.2574
rradius 17.6077
rwrist 134.473
rhand 0.274235 1.61593
rfingers 7.12502
rthumb 25.853 -26.6468
lclavicle -1.26601e-013 -1.05356e-014
lhumerus -45.7697 -1.74453 -5.92311
lradius 11.1104
lwrist -61.4778
lhand -2.17586 30.5837
lfingers 7.12502
lthumb 23.5047 59.1676
rfemur 168.708 -191.207 -149.538
rtibia 34.1012
rfoot -31.6003 -29.9466
rtoes -11.6355
lfemur -68.063 2.46174 2.45475
ltibia 39.3503
lfoot -35.4346 32.3605
ltoes 47.9918
382
root -0.230281 15.8681 -6.78466 20.3018 -22.2534 -11.758
lowerback 2.28671 7.23354 9.0367
upperback -0.933374 9.92035 0.250157
thorax -0.774266 4.88658 -4.87436
lowerneck -26.2699 5.6225 0.720055
upperneck 18.9057 8.65908 -4.62687
head 10.6351 3.40635 -0.352966
rclavicle -4.3919e-014 8.94531e-016
rhumerus -67.2587 -54.1336 69.5337
rradius 17.8822
rwrist 135.84
rhand 0.447754 2.11289
rfingers 7.12502
rthumb 26.0192 -26.1255
lclavicle -4.3919e-014 8.94531e-016
lhumerus -48.324 -1.86892 -6.91467
lradius 10.9692
lwrist -58.7914
lhand 1.58363 29.5909
lfingers 7.12502
lthumb 27.1063 57.6648
rfemur 170.82 -191.305 -146.786
rtibia 33.1725
rfoot -31.7279 -30.3792
rtoes -14.697
lfemur -69.0132 5.92943 3.56988
ltibia 41.5077
lfoot -32.055 34.5478
ltoes 47.091
383
root -0.208085 15.6884 -6.52642 21.0782 -22.1504 -14.3447
lowerback 1.77528 7.87292 10.9735
upperback -0.934034 10.759 0.554293
thorax -0.0838716 5.32292 -5.45602
lowerneck -27.184 5.21418 0.603635
upperneck 19.729 8.05201 -4.06427
head 11.0484 3.15167 -0.208289
rclavicle 7.70291e-016 3.25013e-014
rhumerus -72.2922 -55.3023 73.89
rradius 18.3992
rwrist 138.298
rhand 0.605441 2.27942
rfingers 7.12502
rthumb 26.1702 -25.9367
lclavicle 7.70291e-016 3.25013e-014
lhumerus -50.8474 -2.56555 -6.67386
lradius 10.7899
lwrist -54.5557
lhand 3.99575 29.2434
lfingers 7.12502
lthumb 29.4116 56.9356
rfemur 172.56 -191.004 -144.707
rtibia 32.4912
rfoot -31.7382 -30.1134
rtoes -16.9669
lfemur -70.3539 9.44584 3.83745
ltibia 43.9375
lfoot -27.9809 36.1997
ltoes 46.1438
